FILE "Cliffhanger (1993)(Sony)(US).img" BINARY
  TRACK 01 MODE1/2352
    INDEX 01 00:00:00
  TRACK 02 AUDIO
    PREGAP 00:02:00
    INDEX 01 17:40:50
  TRACK 03 AUDIO
    INDEX 00 21:32:72
    INDEX 01 21:34:72
  TRACK 04 AUDIO
    INDEX 00 23:52:34
    INDEX 01 23:54:34
  TRACK 05 AUDIO
    INDEX 00 25:29:62
    INDEX 01 25:31:62
  TRACK 06 AUDIO
    INDEX 00 27:58:43
    INDEX 01 28:00:43
  TRACK 07 AUDIO
    INDEX 00 29:21:39
    INDEX 01 29:23:39
